<svg width="339" height="361" viewBox="0 0 339 361" fill="none" xmlns="http://www.w3.org/2000/svg">
<path d="M179.738 219.985C240.994 219.985 290.652 170.739 290.652 109.992C290.652 49.2452 240.994 0 179.738 0C118.482 0 68.8236 49.2452 68.8236 109.992C68.8236 170.739 118.482 219.985 179.738 219.985Z" fill="#72C9CF" fill-opacity="0.3"/>
<path d="M263.351 134.247H251.975V144.4H263.351V134.247Z" fill="#193651"/>
<path d="M248.558 121.722L258.412 116.085L253.296 107.29L243.442 112.927L248.558 121.722Z" fill="#193651"/>
<path d="M184.27 189.557L189.959 179.788L181.093 174.711L175.404 184.479L184.27 189.557Z" fill="#193651"/>
<path d="M212.728 183.32H202.49V194.601H212.728V183.32Z" fill="#193651"/>
<path d="M231.098 189.58L239.967 184.509L234.285 174.736L225.416 179.807L231.098 189.58Z" fill="#193651"/>
<path d="M253.419 171.276L258.544 162.486L248.694 156.839L243.57 165.63L253.419 171.276Z" fill="#193651"/>
<path d="M163 355.422C163 328.819 140.329 308 113.59 308H69.4104C42.6704 308 20 328.819 20 355.422V356L163 355.422C163 355.999 163 355.422 163 355.422Z" fill="#828282"/>
<path d="M161.537 361H21.0457C19.3395 361 18.2016 360.436 17.0644 359.308C15.9265 358.18 15.3582 357.052 15.3582 355.36V354.795C15.3582 326.592 39.8165 302.901 69.3933 302.901H112.622C142.199 302.901 166.657 326.028 166.657 354.795V355.36C167.224 358.744 164.381 361 161.537 361ZM27.3022 349.719H155.28C152.436 329.976 134.234 314.183 113.189 314.183H69.9608C48.3474 314.183 30.1463 329.976 27.3022 349.719Z" fill="#193651"/>
<path d="M179.169 68.8153L158.124 47.945C146.179 36.0996 127.409 36.0996 115.464 47.945C103.52 59.7904 103.52 78.4044 115.464 90.2498L136.509 111.12C127.978 135.939 133.096 164.142 153.004 183.884L252.543 85.1731C232.636 65.4313 204.196 59.7904 179.169 68.8153Z" fill="white"/>
<path d="M256.525 81.2249C242.305 67.1233 222.966 59.2261 203.059 59.2261C195.664 59.2261 188.27 60.3546 180.876 62.6108L162.105 43.9968C147.886 29.8952 125.134 29.8952 111.483 43.9968C97.2637 58.0984 97.2637 80.6607 111.483 94.198L130.254 112.812C122.29 139.323 129.685 168.654 149.024 187.833C150.162 188.961 151.868 189.525 153.005 189.525C154.711 189.525 155.849 188.96 156.986 187.833L256.525 89.1221C257.663 87.9936 258.231 86.8658 258.231 85.1738C258.232 83.4811 257.663 82.3534 256.525 81.2249ZM153.005 175.424C138.785 157.938 134.235 134.247 141.629 112.813C142.198 110.557 141.629 108.3 140.491 107.172L119.446 86.3016C109.777 76.7124 109.777 61.4831 119.446 51.894C129.116 42.3048 144.473 42.3048 154.142 51.894L175.188 72.7642C176.894 74.4562 179.169 75.0205 180.876 73.8927C187.702 71.6365 195.096 69.9445 202.491 69.9445C217.848 69.9445 232.067 75.0212 244.012 84.6103L153.005 175.424Z" fill="#193651"/>
<path d="M182.582 154.553C193.958 165.834 211.59 165.834 222.966 154.553C234.342 143.272 234.342 125.786 222.966 114.505L182.582 154.553Z" fill="#72C9CF"/>
<path d="M226.948 110.556C224.672 108.3 221.259 108.3 218.984 110.556L178.6 150.604C177.462 151.733 176.894 152.861 176.894 154.553C176.894 156.245 177.463 157.373 178.6 158.501C184.856 164.705 193.389 168.654 202.489 168.654C211.59 168.654 220.121 165.27 226.379 158.501C240.029 144.964 240.029 123.53 226.948 110.556ZM218.984 150.604C211.59 157.937 199.645 159.065 191.114 153.989L222.397 122.965C227.517 131.427 226.379 142.708 218.984 150.604Z" fill="#193651"/>
<path d="M113.759 100.967L26.7339 182.756C23.3208 186.141 22.1836 191.216 24.4588 195.165L78.4939 309.106C79.0629 309.106 79.6318 309.106 80.2001 309.106H102.383L46.073 193.473L127.41 116.197L127.979 115.633L116.603 104.351C115.465 102.659 114.328 101.531 113.759 100.967Z" fill="white"/>
<path d="M78.493 314.747C76.2179 314.747 74.5117 313.618 73.3738 311.362L18.7704 197.986C15.3573 191.781 17.0642 183.884 22.1835 178.808L109.209 96.4543C110.346 95.3258 112.053 94.7623 113.759 94.7623C115.465 94.7623 117.172 95.8907 117.74 97.0185C118.309 97.5827 118.878 98.7105 119.446 99.2747L130.822 110.556C133.097 112.812 133.097 116.197 130.822 118.453L130.253 119.017L52.8975 194.038L107.502 306.286C108.071 307.978 108.071 310.234 106.933 311.927C105.795 313.619 104.089 314.748 102.382 314.748L78.493 314.747ZM81.9061 302.902H93.2818L40.9528 195.165C39.8149 192.909 40.3839 190.089 42.0908 188.397L119.446 115.069L113.19 108.865L30.1461 187.269C28.4399 188.961 27.871 191.217 29.0082 192.91L81.9061 302.902Z" fill="#193651"/>
<path d="M122.291 324.9C122.291 341.822 135.942 355.359 153.006 355.359H302.597C319.661 355.359 333.312 341.822 333.312 324.9H122.291Z" fill="#E1E6E9"/>
<path d="M302.597 361H153.005C133.097 361 116.602 344.642 116.602 324.9C116.602 321.516 118.877 319.259 122.291 319.259H333.312C336.725 319.259 339 321.516 339 324.9C338.999 344.642 322.504 361 302.597 361ZM128.547 330.541C131.391 341.257 141.061 349.719 153.005 349.719H302.597C314.542 349.719 324.211 341.258 327.055 330.541H128.547Z" fill="#193651"/>
<path d="M38.6786 222.241C56.8984 222.241 71.6685 207.594 71.6685 189.525C71.6685 171.457 56.8984 156.81 38.6786 156.81C20.4587 156.81 5.68866 171.457 5.68866 189.525C5.68866 207.594 20.4587 222.241 38.6786 222.241Z" fill="white"/>
<path d="M38.6781 227.881C17.6329 227.881 -1.11878e-08 210.959 -1.11878e-08 189.525C-1.11878e-08 168.655 17.0639 151.169 38.6781 151.169C60.2923 151.169 77.3562 168.091 77.3562 189.525C77.3562 210.396 59.7233 227.881 38.6781 227.881ZM38.6781 162.45C23.8893 162.45 11.3764 174.295 11.3764 189.525C11.3764 204.754 23.3211 216.599 38.6781 216.599C54.0351 216.599 65.9798 204.754 65.9798 189.525C65.9798 174.295 53.4669 162.45 38.6781 162.45Z" fill="#193651"/>
<path d="M38.6776 201.371C45.2744 201.371 50.6222 196.067 50.6222 189.525C50.6222 182.983 45.2744 177.68 38.6776 177.68C32.0807 177.68 26.7329 182.983 26.7329 189.525C26.7329 196.067 32.0807 201.371 38.6776 201.371Z" fill="#E1E6E9"/>
<path d="M317.954 219.42H137.078V324.9H317.954V219.42Z" fill="white"/>
<path d="M317.954 330.54H137.079C133.665 330.54 131.39 328.284 131.39 324.9V219.42C131.39 216.036 133.665 213.779 137.079 213.779H317.954C321.367 213.779 323.642 216.036 323.642 219.42V324.9C323.642 328.284 321.367 330.54 317.954 330.54ZM142.767 319.259H312.267V225.061H142.767V319.259Z" fill="#193651"/>
<path d="M299.184 238.767H156.986V305.891H299.184V238.767Z" fill="#7555F7"/>
<path d="M162.333 138.602L170.377 130.626L163.139 123.446L155.094 131.422L162.333 138.602Z" fill="#193651"/>
<path d="M182.003 118.79L190.047 110.813L182.808 103.634L174.764 111.611L182.003 118.79Z" fill="#193651"/>
<path d="M202.069 99.3159L210.114 91.3401L202.876 84.1601L194.831 92.1359L202.069 99.3159Z" fill="#193651"/>
</svg>
