<svg width="149" height="105" viewBox="0 0 149 105" fill="none" xmlns="http://www.w3.org/2000/svg">
<path d="M67.2123 5.6265L40.7779 16.8594H33.0703C28.2882 16.8594 24.5885 18.2048 21.9549 20.8899C21.9549 20.8899 21.7125 21.0496 21.3587 21.4184C20.0546 22.7722 19.6993 23.9928 12.6268 21.9322C8.42028 20.7068 5.3866 18.0966 4.73587 15.2149C4.53213 14.3116 4.50442 14.0682 4.82846 13.4015C6.08214 10.8191 7.28246 9.41269 9.71347 7.35233C12.774 4.7587 16.3569 2.93201 20.4703 1.7356C24.577 0.5324 28.9749 0.000305176 33.6597 0.000305176H59.041C61.5298 0.000305176 63.5126 0.507556 64.9916 1.66728C66.4764 2.8069 67.2123 4.09469 67.2123 5.6265Z" fill="#72C9CF"/>
<path d="M33.7057 16.8594C31.8077 16.8594 30.3642 16.0277 29.3691 14.3627C28.3728 12.6999 27.8727 10.6981 27.8727 8.5088C27.8727 6.60787 28.3206 4.8004 29.2225 3.08758C30.123 1.37624 31.6161 0.52057 33.7024 0.52057H58.588C60.6732 0.52057 62.5463 1.01954 64.2057 2.01836C65.8634 3.0166 66.6945 4.46766 66.6981 6.44549V72.1778C66.6948 78.0929 65.8415 83.1572 64.1353 87.2947C62.4281 91.4308 60.0814 94.7834 57.0952 97.351C54.109 99.9189 50.6251 101.798 46.6438 102.986C42.6625 104.174 38.4418 104.769 33.9872 104.769C29.0571 104.769 24.5056 104.127 20.335 102.843C16.162 101.559 12.5855 99.6826 9.59872 97.2084C6.61251 94.7367 4.26643 91.7653 2.55927 88.2927C1.61399 86.371 0.930536 84.1734 0.508611 81.8351C0.169243 79.951 -5.75872e-07 44.5606 -5.75872e-07 42.565C-5.75872e-07 38.9524 0.758345 36.5513 2.27621 35.3617C3.79054 34.1736 6.11541 33.5785 9.24432 33.5785C11.7083 33.5785 13.8165 33.984 15.5723 34.7909C17.3252 35.6001 18.2958 37.1446 18.4877 39.4271C18.5797 41.2346 18.8413 76.4579 19.2679 78.263C19.4416 78.9977 19.6698 79.704 19.9525 80.384C20.3662 81.376 20.8964 82.3104 21.5435 83.185C22.6324 84.6597 24.1255 85.849 26.0228 86.7511C27.919 87.6568 30.2899 88.1063 33.1331 88.1063C37.9688 88.1063 43.1714 88.0785 48.2083 88.0785C48.2083 88.0785 48.2071 77.7146 48.2071 72.1018L48.2103 16.8594H33.7057Z" fill="#72C9CF"/>
<path d="M42.8523 6.23194L33.0277 16.3409L62.0303 16.8594H76.5258C78.4356 16.8594 79.8703 15.9135 80.8748 14.25C81.864 12.5857 82.365 10.6171 82.365 8.42125C82.365 6.51913 81.92 4.49664 81.0134 2.77731C80.1085 1.07188 78.6169 1.62473e-07 76.5258 1.62473e-07H51.6467C49.5562 1.62473e-07 47.347 0.682643 45.689 1.68975C44.0299 2.68266 42.8523 4.33041 42.8523 6.23194Z" fill="#72C9CF"/>
<path d="M81.7876 99.4061L108.222 88.1407H115.93C120.712 88.1407 124.412 86.8278 127.045 84.1424C127.045 84.1424 127.287 83.9993 127.642 83.6307C128.946 82.277 129.301 81.0643 136.373 83.125C140.58 84.3504 143.614 86.9644 144.264 89.8467C144.468 90.7497 144.496 90.9955 144.172 91.6622C142.918 94.2443 141.718 95.6518 139.287 97.7119C136.226 100.306 132.643 102.101 128.53 103.297C124.423 104.5 120.025 105 115.34 105H89.959C87.4702 105 85.4873 104.509 84.0084 103.349C82.5235 102.209 81.7876 100.938 81.7876 99.4061Z" fill="#7555F7"/>
<path d="M115.294 88.2057C117.192 88.2057 118.636 89.0374 119.631 90.702C120.627 92.3649 121.127 94.367 121.127 96.5563C121.127 98.4569 120.679 100.264 119.777 101.977C118.877 103.689 117.384 104.545 115.298 104.545H90.412C88.3269 104.545 86.4534 104.046 84.7943 103.047C83.1367 102.048 82.3055 100.597 82.302 98.6199V32.8873C82.3055 26.9721 83.1585 21.9079 84.8648 17.7703C86.5719 13.6343 88.9186 10.2817 91.9048 7.71407C94.891 5.14617 98.3749 3.26742 102.356 2.07871C106.338 0.890881 110.558 0.296082 115.013 0.296082C119.943 0.296082 124.494 0.937909 128.665 2.22186C132.838 3.50581 136.415 5.38249 139.401 7.85663C142.388 10.3284 144.734 13.2997 146.441 16.7724C147.386 18.694 148.069 20.8916 148.491 23.23C148.831 25.1141 149 60.5045 149 62.5001C149 66.113 148.242 68.5137 146.724 69.7036C145.209 70.8918 142.884 71.4869 139.755 71.4869C137.291 71.4869 135.183 71.0813 133.427 70.2742C131.674 69.4652 130.704 67.9207 130.511 65.6379C130.419 63.8305 130.158 28.6072 129.731 26.8021C129.558 26.0674 129.33 25.3611 129.047 24.6811C128.633 23.6891 128.103 22.7547 127.456 21.8801C126.367 20.4054 124.874 19.2161 122.977 18.314C121.08 17.4083 118.709 16.9587 115.866 16.9587C111.031 16.9587 105.828 16.9865 100.791 16.9865C100.791 16.9865 100.792 27.3504 100.792 32.9633L100.789 88.2057H115.294Z" fill="#7555F7"/>
<path d="M106.148 98.8328L115.972 88.6917L86.9698 88.1406H72.4746C70.5649 88.1406 69.1301 89.1193 68.1256 90.7825C67.1364 92.4468 66.6354 94.4317 66.6354 96.6275C66.6354 98.5299 67.0804 100.528 67.987 102.247C68.8919 103.952 70.3835 105 72.4746 105H97.354C99.4445 105 101.653 104.35 103.311 103.342C104.97 102.35 106.148 100.735 106.148 98.8328Z" fill="#7555F7"/>
</svg>
