<svg width="73" height="52" viewBox="0 0 73 52" fill="none" xmlns="http://www.w3.org/2000/svg">
<path d="M32.9297 2.78643L19.9785 8.34937H16.2023C13.8594 8.34937 12.0468 9.0157 10.7565 10.3454C10.7565 10.3454 10.6377 10.4245 10.4644 10.6072C9.82546 11.2776 9.65139 11.8821 6.18633 10.8616C4.12538 10.2548 2.63907 8.96209 2.32026 7.53495C2.22044 7.08761 2.20686 6.96706 2.36562 6.6369C2.97985 5.358 3.56792 4.66149 4.75896 3.64113C6.25841 2.35666 8.01384 1.45201 10.0291 0.859508C12.0411 0.263636 14.1958 0.00012207 16.4911 0.00012207H28.9263C30.1456 0.00012207 31.1171 0.251332 31.8417 0.825673C32.5692 1.39005 32.9297 2.02782 32.9297 2.78643Z" fill="#72C9CF"/>
<path d="M16.5136 8.34941C15.5837 8.34941 14.8765 7.93751 14.389 7.11299C13.9008 6.28949 13.6558 5.29812 13.6558 4.21389C13.6558 3.27248 13.8753 2.37735 14.3172 1.5291C14.7583 0.681574 15.4899 0.257813 16.512 0.257813H28.7044C29.726 0.257813 30.6437 0.504921 31.4567 0.999577C32.2688 1.49394 32.676 2.21256 32.6778 3.19206V35.7452C32.6762 38.6746 32.2581 41.1826 31.4222 43.2317C30.5858 45.28 29.4361 46.9404 27.973 48.2119C26.51 49.4837 24.8031 50.4141 22.8525 51.0028C20.9019 51.5912 18.834 51.8856 16.6516 51.8856C14.2361 51.8856 12.0062 51.5678 9.96283 50.9319C7.91834 50.296 6.16609 49.3666 4.70276 48.1413C3.23971 46.9172 2.09028 45.4457 1.25388 43.7259C0.790752 42.7742 0.455903 41.6859 0.249187 40.5279C0.0829182 39.5948 -2.8214e-07 22.0681 -2.8214e-07 21.0798C-2.8214e-07 19.2907 0.37154 18.1016 1.1152 17.5125C1.85712 16.9241 2.99616 16.6294 4.52912 16.6294C5.73634 16.6294 6.7692 16.8302 7.62943 17.2298C8.48822 17.6306 8.96377 18.3955 9.05781 19.5258C9.10288 20.421 9.23102 37.8649 9.44004 38.7588C9.52513 39.1227 9.63693 39.4725 9.77547 39.8092C9.97814 40.3005 10.2379 40.7632 10.555 41.1964C11.0884 41.9267 11.82 42.5157 12.7495 42.9625C13.6785 43.411 14.8401 43.6336 16.2331 43.6336C18.6023 43.6336 21.1512 43.6199 23.619 43.6199C23.619 43.6199 23.6184 38.4873 23.6184 35.7076L23.62 8.34941H16.5136Z" fill="#72C9CF"/>
<path d="M20.9947 3.08629L16.1813 8.09262L30.3907 8.3494H37.4925C38.4282 8.3494 39.1311 7.88096 39.6233 7.05717C40.1079 6.23293 40.3534 5.25798 40.3534 4.17052C40.3534 3.22852 40.1354 2.22691 39.6912 1.37543C39.2478 0.530837 38.517 8.04628e-08 37.4925 8.04628e-08H25.3034C24.2792 8.04628e-08 23.1968 0.338071 22.3845 0.836829C21.5716 1.32856 20.9947 2.14459 20.9947 3.08629Z" fill="#72C9CF"/>
<path d="M40.0707 49.2296L53.0219 43.6506H56.7982C59.1412 43.6506 60.9538 43.0004 62.2441 41.6705C62.2441 41.6705 62.3627 41.5996 62.5362 41.4171C63.1751 40.7467 63.3491 40.1461 66.8142 41.1666C68.875 41.7735 70.3615 43.068 70.6801 44.4955C70.78 44.9427 70.7935 45.0644 70.6349 45.3945C70.0206 46.6733 69.4326 47.3704 68.2416 48.3906C66.7421 49.6752 64.9867 50.5641 62.9714 51.1566C60.9593 51.7521 58.8046 51.9998 56.5093 51.9998H44.0741C42.8548 51.9998 41.8833 51.7567 41.1587 51.1823C40.4312 50.6178 40.0707 49.9884 40.0707 49.2296Z" fill="#7555F7"/>
<path d="M56.4865 43.6828C57.4164 43.6828 58.1236 44.0947 58.6112 44.9191C59.0994 45.7426 59.3443 46.7341 59.3443 47.8183C59.3443 48.7596 59.1249 49.6547 58.683 50.503C58.2418 51.3505 57.5104 51.7744 56.4883 51.7744H44.2959C43.2743 51.7744 42.3564 51.5273 41.5436 51.0326C40.7315 50.5383 40.3242 49.8197 40.3225 48.8403V16.287C40.3242 13.3576 40.7422 10.8496 41.5781 8.80053C42.4145 6.75218 43.5642 5.09185 45.0273 3.82028C46.4903 2.54855 48.1972 1.61813 50.1478 1.02943C52.0985 0.441174 54.1663 0.146606 56.3487 0.146606C58.7642 0.146606 60.9941 0.464464 63.0375 1.10033C65.0819 1.73619 66.8342 2.66559 68.2975 3.89088C69.7606 5.115 70.9102 6.58651 71.7464 8.30631C72.2094 9.25798 72.5442 10.3463 72.7509 11.5044C72.9172 12.4374 73.0001 29.9641 73.0001 30.9524C73.0001 32.7416 72.6287 33.9306 71.8849 34.5199C71.143 35.1083 70.004 35.403 68.471 35.403C67.2638 35.403 66.2308 35.2022 65.3706 34.8024C64.5118 34.4018 64.0364 33.6369 63.942 32.5064C63.897 31.6113 63.7688 14.1673 63.5598 13.2734C63.4747 12.9095 63.3631 12.5597 63.2244 12.223C63.0217 11.7317 62.762 11.269 62.4449 10.8358C61.9114 10.1055 61.1799 9.51651 60.2505 9.06976C59.3213 8.62124 58.1598 8.39859 56.7669 8.39859C54.3979 8.39859 51.8486 8.41236 49.381 8.41236C49.381 8.41236 49.3816 13.545 49.3816 16.3247L49.38 43.6828H56.4865Z" fill="#7555F7"/>
<path d="M52.0054 48.9458L56.8187 43.9235L42.6093 43.6506H35.5075C34.5719 43.6506 33.869 44.1353 33.3768 44.959C32.8922 45.7832 32.6467 46.7662 32.6467 47.8537C32.6467 48.7958 32.8647 49.7851 33.3089 50.6366C33.7523 51.4812 34.4831 52 35.5075 52H47.6969C48.721 52 49.8033 51.6782 50.6156 51.1792C51.4283 50.6876 52.0054 49.8877 52.0054 48.9458Z" fill="#7555F7"/>
</svg>
